<svg width="139" height="26" viewBox="0 0 139 26" fill="none" xmlns="http://www.w3.org/2000/svg">
<path d="M126.579 7.30371L129.99 11.4866L133.409 7.30371H138.807L132.263 14.9839V18.9671H127.716V14.9839L121.173 7.30371H126.579Z" fill="#0A112F"/>
<path d="M106.593 18.9671V7.30371H120.817V11.0006H111.141V12.4238H119.68V15.8343H111.141V18.9671H106.593Z" fill="#0A112F"/>
<path d="M99.6331 7.28613H104.18V18.9495H99.6331V7.28613Z" fill="#0A112F"/>
<path d="M93.7232 13.1354C93.7232 11.9552 93.055 11.0006 91.8748 11.0006H86.8935V15.2703H91.8748C93.055 15.2703 93.7232 14.307 93.7232 13.1354ZM82.3462 7.30374H92.7252C95.9275 7.26035 98.3053 9.95057 98.2792 13.1354C98.3053 16.303 95.9275 19.0105 92.7252 18.9671H82.3462V7.30374Z" fill="#0A112F"/>
<path d="M75.1351 13.465V7.28613H79.6911V18.9495H74.571L68.3054 11.8248V18.9495H63.7581V7.28613H70.015L75.1351 13.465Z" fill="#0A112F"/>
<path d="M54.4378 7C58.8289 7 62.3956 8.28436 62.3956 12.6928V13.5433C62.413 17.9518 58.8202 19.2275 54.4378 19.2362C50.0466 19.2275 46.4539 17.9518 46.4713 13.5433V12.6928C46.4539 8.27568 50.0466 7.00868 54.4378 7ZM57.8483 13.2569V12.9705C57.8743 11.07 56.2949 10.7229 54.4378 10.6969C52.572 10.7229 50.9926 11.07 51.0186 12.9705V13.2569C50.9926 15.1661 52.572 15.5132 54.4378 15.5393C56.2949 15.5132 57.8743 15.1661 57.8483 13.2569Z" fill="#0A112F"/>
<path d="M34.5473 16.1902H40.6654C41.0559 16.1902 41.377 15.7996 41.377 15.4091C41.377 15.0186 41.0559 14.6281 40.6654 14.6281H34.5473V16.1902ZM39.815 10.0721H34.5473V11.6428H39.815C40.2055 11.6428 40.5266 11.2436 40.5266 10.8531C40.5266 10.4626 40.2055 10.0721 39.815 10.0721ZM43.4424 12.9359C44.7615 13.3611 45.6467 14.3678 45.6467 15.8344C45.6727 17.8737 43.9544 18.9672 41.9498 18.9672H30V7.30376H41.0906C43.1126 7.29508 44.8222 8.39721 44.7962 10.4279C44.7962 11.5474 44.2755 12.4065 43.4424 12.9359Z" fill="#0A112F"/>
<path d="M10.4867 10.5353C8.20925 9.23151 7.69725 7.18145 8.34813 5.55262C8.57447 4.99281 8.9283 4.49351 9.38148 4.09445C9.38148 4.09445 12.4085 1.44085 15.5128 3.7185C16.2444 4.26742 16.811 5.00684 17.1508 5.85597C17.6023 6.96278 17.6402 8.12278 17.3734 8.91463C16.9162 10.2722 13.5331 12.2799 10.4867 10.5353Z" fill="url(#paint0_linear_50_932)"/>
<path d="M16.3647 7.50035C14.8316 9.63813 12.0099 10.238 10.0593 8.83911C8.98367 8.06771 8.39786 6.85044 8.34813 5.55262C8.57447 4.99281 8.9283 4.49351 9.38148 4.09445C9.38148 4.09445 12.4085 1.44085 15.5128 3.7185C16.2444 4.26742 16.811 5.00684 17.1508 5.85597C16.9887 6.44652 16.7225 7.00338 16.3647 7.50035Z" fill="url(#paint1_linear_50_932)"/>
<path d="M11.7147 6.2247C12.5481 6.8224 13.6092 6.76932 14.0848 6.10614C14.5605 5.44297 14.2704 4.42083 13.437 3.82313C12.6036 3.22543 11.5424 3.27852 11.0668 3.94169C10.5912 4.60487 10.8812 5.62701 11.7147 6.2247Z" fill="url(#paint2_linear_50_932)"/>
<path d="M18.9976 15.5569C18.6599 15.4983 18.3255 15.4226 17.9956 15.3299C13.3895 14.046 9.40718 13.7559 8.09565 11.6462C6.79755 9.55846 6.84868 6.87508 9.30536 4.17821C9.31417 4.16593 9.32172 4.1554 9.33253 4.14897L9.36925 4.10888C9.36925 4.10888 9.36925 4.10888 9.37218 4.10479C9.2126 4.29149 6.86785 7.1324 10.8225 8.98629C11.8871 9.47788 13.2537 9.18781 14.7657 8.77267C16.0394 8.4231 17.4175 7.98361 18.8059 7.84828C19.7583 7.75538 20.6559 7.86234 21.4393 8.15936C21.6601 8.24293 21.874 8.3434 22.0794 8.45987C23.4369 9.22972 24.3119 10.681 24.2884 12.7367C24.2234 12.8743 24.1485 13.0367 24.059 13.2135C23.4765 14.3616 22.2739 16.1138 18.9976 15.5569Z" fill="url(#paint3_linear_50_932)"/>
<path opacity="0.2" d="M18.9975 15.5569C18.4248 14.6449 18.2482 13.466 18.4824 12.2699C18.659 11.4156 19.0137 10.608 19.5232 9.8998C20.0328 9.19163 20.6858 8.59876 21.4398 8.15981C23.1551 8.80985 24.318 10.371 24.2889 12.7372C24.2239 12.8748 24.149 13.0372 24.0595 13.2139C23.4764 14.3617 22.2738 16.1139 18.9975 15.5569Z" fill="#56285B"/>
<path opacity="0.2" d="M24.0605 13.2127C22.5221 13.6904 20.4486 13.3681 18.4834 12.2687C18.1278 12.0713 17.7836 11.854 17.4524 11.6179C16.3001 10.7915 15.3892 9.80165 14.7651 8.77483C16.0388 8.42526 17.4169 7.98577 18.8053 7.85045C19.7576 7.75755 20.6552 7.86451 21.4387 8.16153C23.154 8.81157 24.3169 10.3727 24.2878 12.7389C24.2249 12.8735 24.15 13.036 24.0605 13.2127Z" fill="#56285B"/>
<path opacity="0.6" d="M22.0807 8.45913C20.7822 8.13193 19.2746 7.92583 17.9857 8.21496C15.0017 8.88441 12.328 10.702 9.52712 8.76328C7.00511 7.01746 8.9042 4.63371 9.30652 4.17647C9.31533 4.16419 9.32288 4.15366 9.33368 4.14724C9.35084 4.12825 9.36308 4.11488 9.3704 4.10714C9.3704 4.10714 9.37041 4.10714 9.37334 4.10305C9.21376 4.28975 6.86901 7.13066 10.8237 8.98455C11.8883 9.47614 13.2548 9.18606 14.7669 8.77093C16.0406 8.42135 17.4186 7.98186 18.8071 7.84654C19.7594 7.75364 20.657 7.86061 21.4404 8.15763C21.6613 8.24151 21.8753 8.34231 22.0807 8.45913Z" fill="#DE48CE"/>
<path d="M20.5887 17.7916C20.0177 18.0931 19.4248 18.3509 18.815 18.563C15.2666 19.8144 9.51666 19.3275 9.42665 19.3196C9.42665 19.3196 8.0441 17.9437 9.0055 16.2648C9.27969 15.7753 9.71954 15.3998 10.2459 15.2058C11.5448 14.705 13.516 15.0205 16.0779 15.3485C16.4911 15.4021 16.9198 15.4545 17.3639 15.5055C22.206 15.8107 23.464 13.775 24.2911 12.734C24.129 14.7595 22.9633 16.5257 20.5887 17.7916Z" fill="url(#paint4_linear_50_932)"/>
<path d="M9.42582 19.3208C9.42582 19.3208 8.04328 17.9448 9.00467 16.2659C10.0495 14.4546 12.4796 14.891 16.0764 15.3518C14.4204 18.0684 9.50643 19.2997 9.42582 19.3208Z" fill="url(#paint5_linear_50_932)"/>
<path opacity="0.2" d="M20.5886 17.7916C17.7057 18.6744 14.1642 18.092 11.1871 15.957C10.8561 15.7195 10.5415 15.4698 10.2436 15.2076C11.5424 14.7069 13.5137 15.0224 16.0755 15.3504C16.4888 15.404 16.9174 15.4564 17.3615 15.5074C22.2036 15.8126 23.4616 13.7769 24.2888 12.7359C24.1289 14.7594 22.9632 16.5257 20.5886 17.7916Z" fill="#B51DAE"/>
<g filter="url(#filter0_d_50_932)">
<path d="M24.6435 13.1666C24.8274 11.8938 24.5629 10.6509 23.9008 9.66595C22.6006 7.64049 20.7769 7.29714 19.4756 7.36653C18.9247 7.39865 18.3799 7.49844 17.8534 7.66365C18.0139 6.36163 17.6058 4.99543 16.7052 3.9306C15.5391 2.55049 13.7534 1.90843 11.9273 2.21177C9.93175 2.54407 8.06674 4.16398 7.28582 6.24337C6.45569 8.45311 6.93365 10.81 8.63699 12.881C8.71572 12.9769 8.82934 13.0377 8.95283 13.0498C9.07633 13.062 9.19961 13.0246 9.29553 12.9459C9.39146 12.8671 9.45217 12.7535 9.46433 12.63C9.4765 12.5065 9.4391 12.3832 9.36037 12.2873C7.88091 10.4858 7.45631 8.45594 8.16365 6.57178C8.82003 4.82289 10.4317 3.40925 12.083 3.1347C13.6022 2.8824 15.0273 3.39249 15.9932 4.53426C16.8934 5.59968 17.1886 7.02832 16.7631 8.26257L16.7597 8.26725L16.7561 8.27971C16.7365 8.34422 16.7311 8.41224 16.7404 8.47903C16.7497 8.54582 16.7735 8.60978 16.81 8.66646L16.8348 8.70106L16.8395 8.70442L16.866 8.73409L16.8713 8.73786L16.9005 8.76503L16.9046 8.76797L16.9379 8.79187L16.9725 8.81663C16.9959 8.82988 17.0206 8.84101 17.046 8.84989C17.135 8.88052 17.2311 8.88373 17.322 8.85912C17.3361 8.85536 17.3499 8.85083 17.3636 8.84556L17.3765 8.83982C17.3863 8.83616 17.3958 8.83149 17.4054 8.82682C17.5548 8.75063 21.0846 7.01383 23.1059 10.1693L23.1146 10.1756C24.0377 11.5462 24.2499 14.0464 21.8065 16.5889C21.3901 17.0303 20.9106 17.4075 20.3837 17.7084C19.8737 17.99 19.3327 18.2113 18.7716 18.368C18.6823 18.3925 18.5813 18.4184 18.465 18.4422C17.5779 18.6245 13.0555 19.4864 9.70539 18.8916C9.41698 18.4057 8.97924 17.3859 9.32644 16.6128C9.61566 15.9699 10.4141 15.5655 11.6999 15.4115C11.7241 15.4086 14.1866 15.133 18.1493 15.99C18.2706 16.0163 18.3974 15.9933 18.5017 15.9261C18.606 15.8589 18.6794 15.753 18.7057 15.6317C18.7319 15.5104 18.7089 15.3837 18.6417 15.2793C18.5745 15.175 18.4687 15.1016 18.3474 15.0754C14.2157 14.1822 11.6967 14.4686 11.5899 14.4806C9.95507 14.6766 8.90731 15.2644 8.47608 16.2288C7.79117 17.7544 8.98808 19.5065 9.0389 19.5801L9.14704 19.7356L9.33214 19.7727C12.8742 20.4741 17.7199 19.5517 18.6554 19.36C18.7946 19.3314 18.9176 19.3018 19.0314 19.2691C19.6608 19.0932 20.2676 18.8447 20.8396 18.5288C21.4486 18.184 22.0029 17.7504 22.4841 17.2423C23.6945 15.9917 24.4396 14.581 24.6435 13.1666Z" fill="white"/>
</g>
<g filter="url(#filter1_d_50_932)">
<path d="M3.09724 7.63952C2.90034 7.32726 2.58745 7.106 2.2274 7.02443C1.86736 6.94286 1.48967 7.00766 1.1774 7.20457C0.865134 7.40147 0.643879 7.71436 0.562309 8.07441C0.480739 8.43445 0.545536 8.81214 0.742444 9.12441C0.933698 9.42771 1.25768 9.84666 1.95585 10.0048L4.73062 10.2298C4.73062 10.2298 5.56535 8.32718 5.72353 7.62901C5.8817 6.93085 5.6433 6.45793 5.45204 6.15463C5.25514 5.84237 4.94224 5.62111 4.5822 5.53954C4.22216 5.45797 3.84447 5.52277 3.5322 5.71968C3.21993 5.91659 2.99868 6.22948 2.91711 6.58952C2.83554 6.94956 2.90034 7.32726 3.09724 7.63952Z" fill="#EB3A71"/>
</g>
<defs>
<filter id="filter0_d_50_932" x="6.88803" y="2.13789" width="17.8125" height="18.5305" filterUnits="userSpaceOnUse" color-interpolation-filters="sRGB">
<feFlood flood-opacity="0" result="BackgroundImageFix"/>
<feColorMatrix in="SourceAlpha" type="matrix" values="0 0 0 0 0 0 0 0 0 0 0 0 0 0 0 0 0 0 127 0" result="hardAlpha"/>
<feOffset dy="0.636315"/>
<feComposite in2="hardAlpha" operator="out"/>
<feColorMatrix type="matrix" values="0 0 0 0 0 0 0 0 0 0 0 0 0 0 0 0 0 0 0.11 0"/>
<feBlend mode="normal" in2="BackgroundImageFix" result="effect1_dropShadow_50_932"/>
<feBlend mode="normal" in="SourceGraphic" in2="effect1_dropShadow_50_932" result="shape"/>
</filter>
<filter id="filter1_d_50_932" x="0.527901" y="5.50513" width="5.24723" height="5.36098" filterUnits="userSpaceOnUse" color-interpolation-filters="sRGB">
<feFlood flood-opacity="0" result="BackgroundImageFix"/>
<feColorMatrix in="SourceAlpha" type="matrix" values="0 0 0 0 0 0 0 0 0 0 0 0 0 0 0 0 0 0 127 0" result="hardAlpha"/>
<feOffset dy="0.636315"/>
<feComposite in2="hardAlpha" operator="out"/>
<feColorMatrix type="matrix" values="0 0 0 0 0 0 0 0 0 0 0 0 0 0 0 0 0 0 0.11 0"/>
<feBlend mode="normal" in2="BackgroundImageFix" result="effect1_dropShadow_50_932"/>
<feBlend mode="normal" in="SourceGraphic" in2="effect1_dropShadow_50_932" result="shape"/>
</filter>
<linearGradient id="paint0_linear_50_932" x1="9.0839" y1="4.33896" x2="16.7788" y2="9.85746" gradientUnits="userSpaceOnUse">
<stop stop-color="#7A2276"/>
<stop offset="1" stop-color="#CE1362"/>
</linearGradient>
<linearGradient id="paint1_linear_50_932" x1="9.42282" y1="3.86637" x2="15.728" y2="8.38822" gradientUnits="userSpaceOnUse">
<stop stop-color="#7A2276"/>
<stop offset="1" stop-color="#DA255A"/>
</linearGradient>
<linearGradient id="paint2_linear_50_932" x1="11.0674" y1="3.94211" x2="14.0848" y2="6.10614" gradientUnits="userSpaceOnUse">
<stop stop-color="#7A2276"/>
<stop offset="1" stop-color="#DA255A"/>
</linearGradient>
<linearGradient id="paint3_linear_50_932" x1="8.36742" y1="5.36379" x2="22.5101" y2="15.5065" gradientUnits="userSpaceOnUse">
<stop stop-color="#F93564"/>
<stop offset="1" stop-color="#6165E9"/>
</linearGradient>
<linearGradient id="paint4_linear_50_932" x1="8.61079" y1="16.8966" x2="24.5199" y2="15.6323" gradientUnits="userSpaceOnUse">
<stop stop-color="#FD649A"/>
<stop offset="1" stop-color="#AE1AB0"/>
</linearGradient>
<linearGradient id="paint5_linear_50_932" x1="8.64111" y1="17.2841" x2="16.1825" y2="16.6847" gradientUnits="userSpaceOnUse">
<stop stop-color="#FABD87"/>
<stop offset="1" stop-color="#FB6099"/>
</linearGradient>
</defs>
</svg>
